<svg xmlns="http://www.w3.org/2000/svg" fill="none" viewBox="0 0 1017 1017">
  <g clip-path="url(#a)">
    <path fill="#000" d="M0 0h1017v1017H0z"/>
    <path fill="#fff" d="M316 221a461 461 0 0 1 78 64c3 0 1-7-3-13a171 171 0 0 0-85-60c-1 1 1 4 10 9Zm45-2a312 312 0 0 1 37 35c5 0-5-19-15-29l-21-14c-14-9-20-11-19-8l18 16Zm47 185 9 3c4 2 10 0 16-6 16-15 35-23 67-28 12-2 12-2 16-8l22-23c17-17 19-18 36-26 26-13 41-17 79-19l15-2-1-2c-1-4-9-7-22-8-11-2-86-4-98-2-43 4-51 6-75 23-32 22-57 53-68 83-4 13-4 15 4 15ZM150 585c29-1 41 1 51 7 9 5 11 8 13 18 1 8 2 8 5 2 2-7-2-19-8-25-9-9-18-12-39-16s-34-5-41-3c-11 4-20 16-20 29 0 12 5 17 6 6l5-12c3-4 13-6 28-6Zm52-70c3 7 7 9 9 5 0-1 0-7-2-13-13-53 2-89 41-98 14-3 47-2 58 1 29 10 42 32 37 66-1 9-1 9 8 7 8-2 9-6 9-22 1-24 1-24 3-21 2 2 2 2 8 0 12-4 23-5 33-1 12 4 12 4 12-2 0-11-19-18-39-14-6 1-8 3-12 8-4 4-6 5-8 4l-9-11a60 60 0 0 0-43-28 190 190 0 0 0-74 2c-65 10-64 9-64 30s0 13 8 19c12 8 14 13 16 35 3 20 4 25 9 34v-1Zm-18-82c-4-3-5-11-1-14l10-2c5 0 7 1 10 4 4 5 3 8-1 12-5 4-14 4-18 0Zm127-182c-1 2 7 8 28 24a356 356 0 0 1 36 29c5 0-3-15-13-25-9-9-17-14-34-22s-16-8-17-6Zm252 139-28-2-18 1c-20 2-45 8-57 14-15 8-31 27-34 40-2 9-2 38 0 49 5 29 23 55 46 67 12 6 30 13 40 15 11 1 28 0 38-2 23-6 42-19 56-38 12-17 16-29 20-56 1-9 3-17 5-20 4-5 12-11 21-14l8-4 3-12c1-12-1-16-12-21-14-6-58-15-87-17h-1Zm42 107c-10 36-31 56-65 63-12 2-16 3-25 2-22-3-39-11-54-26a88 88 0 0 1-22-77c5-33 25-49 70-55 23-3 54 1 70 10 10 5 21 17 25 27 5 14 5 40 1 56Zm34-65c-5 2-8 3-12 2-6-1-12-4-15-7-2-3 0-8 4-10 5-2 19-1 25 1 4 2 5 3 5 7 0 3-1 5-7 7Zm251-200c-43 23-70 43-88 66-11 14-31 55-29 58 2 2 7-3 21-23a449 449 0 0 1 86-83l25-20c10-9 5-9-15 2Zm-160 90 2-14c0-20 3-35 10-51 14-29 37-52 68-66 31-15 49-21 112-38a389 389 0 0 0 93-39c0-2-1-1-1-1l-36 11c-34 12-75 23-105 30-42 10-68 19-88 31-27 16-51 48-58 80-4 17-1 60 3 57Z"/>
    <path fill="#EE2525" d="M1005 753c9-7 18-9 25-9 7-16 12-35 12-35s-63 1-78 23c17 0 32 8 41 21Z"/>
    <path fill="#fff" d="M683 433c-1 7-1 7 3 8l36 12 35 14c84 31 122 48 139 62l12 10c7 6 10-4 4-13l-11-10a905 905 0 0 0-180-81l-33-13c-4-1-4 0-5 11Zm23-122 1-15c0-16 5-42 10-58 2-8 3-11 2-22-1-9-2-12-4-9-5 8-10 25-15 51-3 15-7 12-14-11-5-15-6-18-7-14-2 5 2 28 6 39s19 39 20 39h1Zm135-2c-9 8-19 20-29 37-8 13-8 14-5 14 6 0 13-5 23-16 14-17 22-23 45-43a598 598 0 0 0 29-29c-6 0-47 24-63 37Zm-55 80c6 1 29 1 42-1a177 177 0 0 0 85-44c-1-2-4-1-13 3-52 21-83 31-107 36-10 2-13 4-7 6ZM188 718c-9-7-16-16-24-32-4-8-10-12-17-14-14-3-15-3-16-2-3 3 18 34 27 42 12 10 37 20 38 14l-8-8Zm116 95-2 5-5 25c-1 3-1 4 5 4s9-1 10-2c4-1 4-1 3-13l-2-15c-1-5-6-7-9-4Z"/>
    <path fill="#EE2525" d="M941 824v1l-2 2v1l-7 10-2 3-1 1-2 4-1 1-2 4-1 1-3 4v1l-3 4v1l-3 4-1 1-3 5v1l-4 4v1l-4 5-3 5-1 1-3 5h-1l-3 5-1 1-4 5v1l-4 5-4 5-1 1-4 5v1l-4 5h-1l-4 5v1l-5 5-4 5h-1l-4 5v1l-5 4v1l-5 4v1l-5 5-5 4-5 5-5 4-1 1-5 4-5 4-3 2h-1l-1 2-1 1-2 1-1 1a1799 1799 0 0 1-3 2l-2 1-1 1-2 1-1 1-2 1-1 1-3 2-2 1-2 1-1 1-2 2-2 1-2 1-1 1-2 1-2 2-2 1-1 1-3 1-1 1-3 2-2 1-3 2-1 1-3 1-1 1-3 1-2 1-2 2-2 1-2 1-2 1-3 1-2 2-2 1-2 1-5 2-1 1-3 1-2 2-3 1-2 1-3 1-2 1-3 1-2 2-3 1-2 1-3 1-2 1-4 1-2 1-4 2-3 1-3 1-2 1-3 1-3 1-3 1-3 1-3 1-2 1-4 1-2 1-4 1-2 1-6 1-2 1-4 1-2 1-4 1h-3l-3 1-3 1-4 1h-3l-3 1-3 1-4 1h-3l-6 1h-1l-6 1-3 1h-4l-3 1h-4l-3 1h-4l-3 1h-8l-4 1h-3a511 511 0 0 1-15 1h-66l-4-1h-9l-6-1h-3l-9-1a160 160 0 0 1-34-7l-7-3-5-2-11-5-3-1-6-4-3-2-4-3-5-4-6-5-4-4-3-4-3-3-1-1a188 188 0 0 1-9-14l-1-2-1-3-1-2-2-5a58 58 0 0 1-4-12v1l-1 1v1h-1v1l-2 2v2l-3 4-2 5-3 5-1 2v1l-4 6v1l-1 2-2 5-1 3-1 1-2 4v1c2 23 12 65 59 93 36 20 92 32 182 21 46-6-82 46-178 5-32-14-60-39-77-80l-1 1a71 71 0 0 0-2 7l-2 6v2l-2 6v1l-2 8-2 6v2l-1 5v2l-2 5v2l-1 5-1 3v5l-1 2-1 5v3l-1 5v3l-1 4-1 4v8l-1 5v3l-1 5v4l-1 5v12l-1 5v67l1 5v10l1 6v4l1 6v5l1 6v5l1 7 1 4 1 10v1l1-1 9-10v-1l6-6 1-1 3-3 4-4 10-10 7-6 8-6 10-8 6-4 13-8 6-4a347 347 0 0 1 28-15l5-2 24-10 9-3 8-3a977 977 0 0 1 35-10l13-3 14-4 4-1a1718 1718 0 0 0 129-40l11-5 12-4 23-11 6-3a681 681 0 0 0 122-73l42-34 10-9 3-4 6-5 3-4 5-5 5-5 6-6 5-7 3-4a378 378 0 0 0 15-19l7-9 3-5a106 106 0 0 0 10-17v-1l1-1v-1h1v-2l1-3 1-1v-1l1-1v-1l1-1v-1l1-2 1-1 2-5 1-3 1-1 1-2v-1l1-2v-1c-85 108-206 134-165 115a485 485 0 0 0 182-165v2l2-6 2-8 2-7 2-8 7-32c-7-1-13-3-19-6v-2Z"/>
    <path fill="#fff" d="M491 848c28-9 52-13 80-13 34-1 46 3 66 19 4 4 9 7 11 7l-5-1a309 309 0 0 0-154 4c-46 14-99 33-99 33l-22 5c-12 2-20 7-24 15l-12 19c-3 4-6 7-5 8 1 2 11-2 23-9 18-11 20-9 11 8-8 14-12 28-13 44 0 13 1 26 4 26s2-4 3-9c5-20 23-48 28-43 1 1 1 5-2 11-7 18-10 47-6 64 1 7 4 14 6 19l5 2 1-8c0-13 4-28 9-37 6-10 9-10 9-1v53a589 589 0 0 0 150 7l19-14c18-12 40-33 51-48l20-38c2-5 5-6 6-3 2 3-1 22-4 31-6 17-24 43-37 53l-6 6c-4 4-2 5 2 5l20-5 21-8c19-14 53-46 66-62l16-24 20-34c2 0 2 3 0 16-4 19-12 38-23 55l-9 16v2l14-8 13-11c25-25 43-56 55-101 2-9 6-13 9-10s2 27 0 41a208 208 0 0 1-10 37l11-9 10-14c10-16 20-48 23-79 2-18 3-19 6-23 2-2 3-3 4-1 3 4 4 18 3 44-1 18-1 27 1 27l2-2 8-25c9-31 11-51 11-70-1-18 0-24 5-24 4 0 13 25 15 46l2 12 1 2 2-4c6-15 7-57 2-79-6-31-34-79-60-105-8-8-10-10-10-7s4 10 10 19c17 27 25 54 22 78-4 27-13 43-16 26-1-11-8-37-12-49-9-24-34-60-39-56l7 15c16 32 23 43 20 74-2 22-18 52-21 52-1 0-2-40-6-55-5-19-10-31-19-44-9-14-18-19-14-9 1 2 8 55 7 75-2 24-15 62-22 63a281 281 0 0 0 0-54c-4-24-19-63-35-87-14-23-34-40-58-52-20-9-35-14-66-20-43-7-65-16-91-37-3-3-12-7-20-10l-23-11c-33-23-51-55-51-92l-1-13-3-3c-2 0-9 7-14 15-9 14-35 25-108 43l-103 27c0 2 6 2 14 3 19 3 36 7 45 12s17 16 19 26c5 22-1 48-14 62a72 72 0 0 1-54 19l-8 1c-1 4 7 17 14 24 12 11 41 24 73 32 25 7 33 8 74 9 35 0 41 0 59-3 29-4 58-11 94-22l51-15c17-5 25-7 27-10l6-4c5-3 11-4 18-3 20 3 35 15 35 31s-1 12-9 20c-7 7-11 8-9 3l2-10c0-6 0-7-4-12-6-5-4-7-17 14-10 14-14 19-31 34-25 22-54 39-97 56-51 20-123 41-159 46-30 4-68 2-87-6-8-3-9-3-9 1 0 5 12 16 23 21 16 8 25 9 52 10 25 1 33 1 64-5 33-6 113-27 141-36v-1Z"/>
    <path fill="#EE2525" d="m964 750-15 3v1l-2 1h-1v1l-2 1-2 1v1l-2 2-2 2v1l-1 2-1 2-1 1-1 3v3l-1 3v9l1 1v2l1 1v1c3 7 8 14 16 17 3 2 7 3 11 3v3l1-3h1a31 31 0 1 0 0-63v1Zm87 16-10-3c-7 11-15 20-28 20 0 15-7 27-17 36v7s20 19 60 19c41 0 25-2 40-6 67-18 69-82 69-82s-32 18-70 18-29-3-44-9Z"/>
    <path fill="#fff" d="M179 599c0-2-3-1-7 3-5 5-8 16-6 25 1 9 8 19 15 24 6 3 9 4 18 4 17 0 31-8 36-21 4-8 2-9-5-1-16 18-44 18-53 0-5-9-5-19-1-27l3-7Z"/>
    <path fill="#fff" d="M1144 721c-1 1-24 13-50 13-25 0-11-1-17-2l4-13 13-51-53 1c-2 0-19 0-39 3l-6 1c-1-6-5-13-16-18a119 119 0 0 1-27-32l7-5c6-4 10-11 10-19 0-7-1-12-15-27l-4-5 6-12c2-6 3-17 3-28 7-3 12-8 14-15 3-6 3-12 0-18 10-2 16-5 20-10 4-6 6-13 5-20l17-11c15-13 12-25 10-31-3-6-6-9-10-11 9-9 17-19 22-29 4-9 12-26-2-40l-6-5 4-8c17-34 5-49-3-54-1-1-5-3-11-4 3-8 4-16 3-22a25 25 0 0 0-18-20c9-22 16-34 34-61 20-29 30-48 33-64 1-9 3-20-5-30-9-10-20-10-27-10s-17 1-23 3c-8 1-36 10-53 16a1306 1306 0 0 1-152 43h-1c-14 5-29 11-42 19-2-6-7-10-12-12-12-5-23 1-32 6l-20 17-9 12c-5-6-12-8-18-8-19 0-25 18-28 28-7 19-9 31-9 52h-80c1-24-2-38-11-56-6-12-13-25-27-27-6-1-12 1-17 4l-5-5c-1-1-25-27-44-27s-18 6-22 15l-3-2c-24-12-36-15-103-28a600 600 0 0 1-118-34c-8-3-18-3-22-3-12-1-22 1-29 8-14 13-4 36 1 45 1 3 6 13 35 46 17 20 23 29 36 53-6 1-12 6-15 11-6 10-4 22 0 32-7 1-12 5-16 11-6 9-5 22 3 38 4 9 10 16 16 23l-6 6v9c-42 6-65 15-77 32-9 11-9 18-9 37-1 23 0 30 18 47l5 5v2l6 32-7 2c-11 3-26 8-34 12a77 77 0 0 0-47 61c-1 15 0 30 12 44-1 29 14 72 33 95 19 22 40 35 63 40a56 56 0 0 0-20 45c0 21 3 23 9 32-3 13-1 26 6 36 14 24 46 42 87 50l25 2-2 3c-10 9-18 17-17 29 1 7 5 14 10 17l6 3c-9 15-27 47-42 97a692 692 0 0 0-17 287l14 95 58-77c1-1 12-15 32-32l28-21c1 9 1 15 3 22 7 35 13 41 20 45 4 3 18 10 33-5l17-19c16-20 26-30 48-46 1 6 5 11 9 14 4 4 12 9 45 0a413 413 0 0 0 75-34v1c4 7 12 16 31 13l24-5a253 253 0 0 0 108-62v1l10 4c7 4 15 2 25-1 32-11 57-32 80-67l11-18c3 5 8 11 19 13 22 3 35-21 42-35 7-13 12-26 16-40a25 25 0 0 0 30 7c10-5 16-17 19-26v-1a297 297 0 0 0 3-99c9-1 16-7 19-16 2-6 3-12-1-32a305 305 0 0 0-25-69 189 189 0 0 0 91-2 129 129 0 0 0 98-120l2-70-62 34Zm38 37c0 2 0 20-11 41-9 20-29 46-71 57-15 4-30 7-44 7-46 0-70-22-73-24l-5-6-4 19 10 17a225 225 0 0 1 37 104c-1 3-3 2-7-4-7-12-37-39-40-36l7 13c16 26 21 48 23 88 0 27-1 41-5 55-3 9-7 14-10 14l-3-12a154 154 0 0 0-34-76 254 254 0 0 1 1 80c-4 20-10 35-18 51s-15 23-19 22c-3 0-3-1-2-7 1-15 0-51-2-64-5-20-9-26-11-13-5 38-15 67-37 99-21 32-42 49-68 59l-9 2c-1-1 2-6 7-12 9-12 19-31 24-46 5-17 9-41 5-41-3 0-5 7-9 15-19 38-52 78-86 104-20 14-49 29-74 35-30 8-36 6-21-4 14-10 33-26 41-36 16-19 33-50 29-54 0 0-11 9-22 21a420 420 0 0 1-158 98c-10 3-25 6-25 4l14-14c23-22 46-49 43-52a421 421 0 0 0-145 102c-14 17-18 21-21 19a155 155 0 0 1-12-73v-14c-28 14-50 30-65 43-23 19-35 35-35 35l-26 35-6-43a697 697 0 0 1 16-276c19-64 43-97 44-99l20-29c-13 3-34 5-36 3-2-1 0-4 9-13 11-11 27-34 27-40s-1-2-6-2c-9 2-44 2-55 0-35-6-62-21-73-39-4-7-5-17-2-25 2-5 2-5-1-8-6-7-8-13-8-25 0-11 3-19 14-30 10-9 23-16 48-24 19-7 24-9 20-11l-16-5c-9-3-18-3-25 0-34 11-64 2-89-28-17-20-30-58-29-82 1-7 0-8-5-13-6-7-7-14-6-29 1-17 14-33 34-42 5-3 19-8 30-11 19-6 29-9 29-11l-2-6c-3-7-8-29-9-41-1-6-5-14-13-21-7-7-11-17-11-30 0-18 1-19 5-24 10-13 36-21 84-26l19-3-8-5c-8-4-14-9-14-11s9 0 20 0c18 0 21 0 29-3 13-4 13-7 1-7-25 0-51-16-62-38-4-8-6-17-3-17 2 0 4 3 9 8 9 8 15 12 30 18 11 4 32 7 34 5 1-1-2-4-9-7-18-11-29-21-40-39-8-12-12-29-8-29 5 0 7 6 14 12 8 8 16 14 22 18 11 5 21 9 22 8l-4-7c-9-10-24-33-37-58-15-29-22-39-41-62-17-20-29-35-33-42s-6-17-4-19 20-2 30 1l31 10c24 9 55 17 88 24 67 14 75 16 97 27 18 9 33 19 45 31 10 9 11 9 11 6 0-9-10-29-20-39-4-5-5-9-1-9 3 0 19 10 28 20a121 121 0 0 1 28 59c0 2 2 1 3-3 4-7 5-25 3-37l-1-11c2-2 6 3 12 14 7 16 10 27 8 50 0 12 15 18 46 18l63 1c10 1 16-5 15-18 0-22 2-31 8-50 3-9 5-12 7-12s3 2 4 11c2 11 6 27 8 29s4-2 6-10c4-11 16-31 26-41 12-13 28-22 28-17 0 6-2 6-5 11-6 12-11 34-8 34s5-4 10-10c19-18 44-33 72-42l63-17c36-9 60-16 90-26l50-16 19-2c11 0 11 0 9 13s-11 30-29 56c-19 28-27 42-37 67-14 34-23 48-40 66-12 12-10 13 7 4 12-6 24-17 35-30 10-12 11-14 14-12 6 3-6 35-19 52-7 9-24 24-36 31-11 7-6 8 12 3 20-6 37-17 54-38 11-13 13 1 3 21a117 117 0 0 1-72 59c-4 0-5 3-2 4 4 1 25 1 34-2 12-2 25-9 36-18 7-5 9-6 11-5 2 2 2 5-3 15-5 11-17 23-28 31-10 7-31 14-45 16-7 0-8 2-4 4 12 6 31 8 51 6 15-1 17 0 10 6s-19 12-34 15l-12 5 11 7c9 4 11 5 10 7-2 2-39 7-49 7h-8c0 1 7 7 16 12l17 13c3 3 0 6-9 7l-9 2 1 5c3 6 3 25 0 32-1 4-4 6-9 5h-9c-2 2 9 21 21 34l9 12c0 3-6 5-11 4l-14-6-10-4c-2 3 17 37 30 55 6 9 21 24 27 27 7 3 7 7 0 7a130 130 0 0 1-42-10c-1 1 0 6 2 11 4 14 6 24 8 41l2 14 3-2c1-6 5-12 7-15 9-13 27-22 56-27 19-3 36-3 36-3h24l-6 22-10 30-1 2 9 4c12 5 24 7 37 7 32 0 60-15 61-15l27-16-1 32 1 1Z"/>
    <path fill="#fff" d="M516 757c25-14 47-30 47-35s-3-2-8 0l-19 6c-20 5-25 7-29 14-5 10-11 16-17 17-11 1-8 3 4 3 13 0 13 0 22-5ZM143 649c9-10 7-39-4-49l-6-4c-3 0-2 1 2 8 5 8 7 17 6 26-2 9-4 13-10 13s-8 2-5 6c4 4 13 4 17 0Zm126 187c11-4 14-8 19-22 7-25 22-28 36-9 3 5 6 5 9 3 6-6 25-20 33-24l16-7c14-5 12-7-14-8-12-1-16-1-20-4-8-5-23-3-41 6-13 6-41 24-57 38l-15 11c-5-3 4-20 17-32 19-16 19-16 16-17-4 0-34 10-46 17-21 11-28 25-18 39 8 13 43 18 65 9Zm180-54c-9-10-12-9-18 3-8 15-13 19-34 24-20 5-47 13-55 17-6 2-8 4-9 7v5c3 2 50-11 92-26 44-15 69-26 79-35 3-2 5-5 5-6-1-2-3-2-17 3l-27 10c-7 4-12 3-16-2Z"/>
    <path fill="#000" d="M579 414c-16-9-47-13-70-10-45 6-65 22-70 55-5 30 3 58 22 77a87 87 0 0 0 79 24c34-7 55-27 65-63 4-16 4-43-2-56-3-10-14-22-24-27Zm62 4c-6-2-20-3-25-1-4 2-6 7-4 10 3 3 9 6 15 7 4 1 7 0 12-2 6-3 7-4 7-8s-1-5-5-6Zm-438 3c-3-3-5-4-10-4-6 0-9 1-10 2-4 3-3 11 1 15 4 3 13 3 18-1 4-3 5-7 0-12h1Z"/>
    <path fill="#000" d="M1095 757c-13 0-26-3-37-7l-9-4 1-2 10-30 6-23-24 1s-17 0-36 3c-29 5-47 13-56 27-2 3-6 8-7 15l-3 2-3-14c-1-18-3-27-7-41l-2-11 6 2c6 3 27 8 36 8 8 0 7-4 0-8-6-2-21-17-27-26-13-19-32-53-30-55l10 4 13 5c6 2 12 0 12-3s-4-6-9-12c-12-13-23-32-21-34h9c5 1 8-1 9-5 2-7 2-26 0-32-1-3-2-5-1-6l9-2c9-1 12-3 9-6l-17-13-16-12 8-1c10 1 47-4 49-6 1-2-1-3-10-8l-11-6 12-5c15-4 27-9 34-15s5-8-11-6c-19 2-38 0-50-6-4-2-3-4 3-4 15-2 35-10 45-16 12-8 24-20 29-31 4-10 5-13 2-15-1-1-4 0-10 5a94 94 0 0 1-70 20c-3-2-2-4 2-4 3 0 31-14 40-21 12-9 25-25 32-38 10-21 8-34-3-21-17 21-34 32-55 38-17 5-22 4-11-3 12-8 29-22 36-31 13-17 24-49 19-52-3-2-4-1-14 12-11 13-23 23-35 30-17 9-19 8-8-5 18-17 27-32 41-66 10-24 18-38 37-66 18-26 27-44 29-56 2-13 2-14-9-13l-19 2-50 16c-30 10-54 17-90 26-27 6-55 14-64 17a179 179 0 0 0-81 52c-3 0 2-22 8-34l4-11c0-5-16 4-28 17-9 10-21 30-25 41-3 8-4 11-6 10-2-2-6-19-8-29-1-9-2-12-4-12s-4 4-7 13c-6 18-8 28-8 50 0 13-5 19-15 18l-63-1c-31 0-46-6-46-18 1-23-1-35-9-50-5-12-9-17-11-14v10c3 13 1 31-2 38-2 4-3 5-3 2-1-2-3-7-3-12-3-13-15-36-25-46-9-10-24-20-28-20-5 0-3 4 1 8 9 11 19 31 19 40 0 8 0 3-10-6-12-12-27-22-46-32-21-10-29-12-97-26a627 627 0 0 1-118-34c-10-3-28-3-31-1-1 1 1 11 5 19 3 7 15 22 33 42 19 22 26 33 41 61a343 343 0 0 0 41 66c-1 1-11-3-22-8-6-4-14-10-22-18l-14-12c-4 0 0 16 8 29 11 18 22 28 40 38 6 4 10 7 9 8-2 2-23-1-34-5-15-6-22-10-30-18l-9-8c-3 0-1 9 3 17 11 22 37 38 62 38s12 3-1 7c-8 3-11 3-29 3h-20c0 2 6 7 14 11l8 5-19 3c-48 5-74 12-85 26-3 5-4 6-4 24 0 13 3 23 11 30s12 14 12 21a210 210 0 0 0 12 47c0 1-10 5-29 11-11 3-25 8-30 11-20 9-33 24-34 42-2 14 0 22 6 28 5 6 5 7 5 14-1 24 12 62 29 81 25 31 54 40 88 29 8-3 17-3 26 0l16 5c3 2-1 4-20 11-26 8-38 15-48 24-12 11-14 17-14 30s2 18 8 25c3 2 3 3 1 8-3 8-2 17 2 25 11 18 38 32 72 38 12 3 47 3 56 1 5-1 6 0 6 2 0 6-16 29-27 40-9 9-11 12-10 13 3 2 24 0 37-3l-21 29a539 539 0 0 0-65 216c-4 51-2 104 6 159l6 43 26-35s12-16 35-35c15-13 37-29 64-43v14c0 23 1 32 3 42 3 17 7 29 10 31s7-2 21-19a426 426 0 0 1 145-102c2 3-20 30-43 52l-14 14c0 1 14-1 25-4a414 414 0 0 0 157-98l23-21c4 4-13 35-29 53-9 10-27 26-41 37-15 10-9 12 21 4 25-7 54-21 74-35a316 316 0 0 0 95-119c4 0 0 24-6 41-5 15-14 34-23 45l-8 12c1 1 5 0 10-2 26-9 47-26 68-58 22-32 32-61 37-99 2-13 6-7 10 13 3 12 4 49 2 64 0 6 0 7 3 7 4 1 11-7 19-23 8-15 13-31 17-50a254 254 0 0 0-1-80c2-1 7 6 16 21 8 12 15 35 19 55 0 6 2 11 3 11 3 1 7-5 9-13 5-14 6-28 5-55-1-40-7-62-22-89l-7-12c3-3 33 24 40 35 3 7 5 8 7 4 1-3-5-31-10-47a314 314 0 0 0-38-73l4-19 6 6c3 2 27 23 73 23s29-2 44-6c42-11 62-37 71-57 10-21 11-40 11-42l1-31-28 16s-28 15-60 15l-1-1Zm-53-48s-4 19-11 35c-8 0-17 2-26 9-9-13-24-21-41-21 15-22 78-23 78-23ZM726 265c8-32 31-64 59-80 20-12 46-21 87-30 31-8 72-19 106-30l35-12 1 1c0 3-7 7-25 16-16 7-41 16-67 23-63 17-81 23-112 38-31 14-54 37-68 66-7 16-10 31-10 51s-1 13-2 14c-4 3-7-40-4-57Zm178-35c-3 4-15 13-24 20a462 462 0 0 0-86 83c-15 20-19 25-21 23-3-3 18-44 29-58 18-23 45-43 88-66 20-11 25-11 14-2Zm-3 48-26 23c-23 20-31 26-45 43-11 11-17 16-23 16s-3-1 5-14c10-17 20-29 29-37 16-13 57-37 63-37 3 0 2 1-3 6ZM793 383a652 652 0 0 0 119-39 176 176 0 0 1-84 43c-13 3-36 3-42 2-6-2-3-4 7-6Zm-25 70 34 13c21 8 90 43 100 50l10 10c6 9 3 18-4 13l-12-10c-17-14-55-31-139-62l-35-14-36-12c-4-1-4-1-3-8 1-11 2-12 5-11a2407 2407 0 0 0 80 31Zm-89-220c1-4 2-2 7 14 7 23 11 26 14 11 5-26 10-43 15-51 2-3 3 0 4 8 1 12 0 15-2 22a233 233 0 0 0-11 74c-2 0-17-28-21-40-4-10-8-33-6-38ZM404 389c11-30 36-61 68-83 24-17 31-19 75-23 12-1 87 0 98 2 13 2 21 4 22 8v3l-14 1c-38 3-54 6-79 19-17 8-19 9-36 26-10 10-20 20-22 24-4 5-4 5-16 7-32 5-51 13-67 28-7 6-12 8-16 6l-9-3c-8 0-8-1-4-15Zm258 40-2 11-9 4c-8 3-16 9-20 15-2 2-4 10-5 19-4 27-8 40-20 56a97 97 0 0 1-94 40c-10-2-29-9-40-14a94 94 0 0 1-46-67c-2-12-2-41 0-49 3-14 19-33 34-41 12-6 37-12 57-13l18-1c1-1 14 0 28 1 30 3 74 11 88 18 11 5 13 8 11 21ZM362 211l21 14c11 10 20 29 15 29s-5-5-11-10a334 334 0 0 0-44-41c-1-3 5-1 19 8Zm-56 1c0-2 2-1 21 8 25 11 50 32 64 52 4 6 6 13 3 13s-6-5-11-11a463 463 0 0 0-77-62Zm69 92a356 356 0 0 0-36-29c-21-16-29-23-28-24 1-2 0-2 17 6s25 13 34 22c10 10 17 25 13 25ZM178 447c-6-4-9-10-9-19 0-21-1-20 64-31l30-4c12-1 33 1 44 3 21 4 33 12 43 28 4 6 8 11 10 11 1 1 3 0 7-5 4-4 6-6 12-7 20-4 39 2 39 14 0 11 0 6-12 2-10-4-21-3-33 1-6 2-6 2-8-1-2-2-2-2-3 22 0 16-1 19-9 22-9 2-9 2-8-7 5-35-7-56-37-66-11-3-44-4-57-1-39 9-54 45-42 98 2 6 2 11 2 13-2 4-6 2-9-5-5-8-6-14-9-33-2-22-4-27-15-35Zm-61 156c-1 11-6 6-6-6s9-25 20-28c7-3 20-2 40 2 22 4 31 8 40 16 6 6 10 18 8 25-3 7-4 6-5-2-2-9-4-13-13-18-11-6-23-7-51-7-16 0-25 3-28 7-2 3-5 8-5 12v-1Zm60 30c9 18 37 18 53 0 7-8 9-7 5 1-5 13-19 21-36 21-9 0-12-1-18-4-7-5-14-15-15-24-2-9 1-21 6-25 4-4 7-6 7-3l-3 7c-4 7-4 18 1 27Zm-46 10c6 0 8-4 10-13 1-9-1-18-6-26-4-7-5-8-2-8s4 2 6 4c11 10 13 39 4 49-4 4-13 4-17 0-3-4-2-6 5-6Zm65 83c-2 6-26-4-38-14-9-8-30-39-27-42 1-1 2-1 15 2 8 2 14 6 18 14 8 17 14 25 24 32l8 8Zm7 101c-9-14-2-28 18-39 13-7 42-17 46-17 4 1 4 0-15 17-13 11-22 29-18 32l16-12c16-13 44-31 57-37 18-9 33-11 41-6 4 3 8 3 20 4 26 1 28 2 14 8l-16 7c-8 4-27 18-33 23-3 3-6 2-9-2-14-20-29-16-36 9-5 14-8 18-19 22-22 8-58 3-66-9Zm289-53c14-5 16-5 17-3 0 1-2 4-5 6-10 9-35 20-79 35-42 15-89 28-92 26v-5c1-3 3-5 9-8 8-3 35-12 55-16 21-5 26-9 34-24 6-12 9-13 18-3 4 5 9 5 16 2 6-3 18-8 27-10Zm-2-15c6-1 12-7 17-17 4-7 9-9 29-14l19-6c5-2 8-3 8 0 0 5-22 21-47 35-9 5-11 5-22 5s-15-2-4-3Zm-178 86-10 2c-6 0-6-1-5-4l5-25c0-3 1-4 2-5 3-3 8-1 9 3l2 16c1 12 1 12-3 13Zm-26 45c-27-1-36-3-52-11-11-5-23-16-23-21s1-3 9 0c19 7 57 10 87 6 36-6 108-26 159-47 43-17 72-34 97-55 17-15 21-20 31-35 13-20 11-19 17-13 4 4 4 5 4 11l-2 11c-2 5 2 4 9-3 8-8 9-11 9-21 0-15-15-27-35-31a28 28 0 0 0-24 8c-2 2-10 5-27 10l-51 14c-36 12-65 19-94 23-18 3-24 3-59 2-41 0-49-1-74-8-32-9-61-22-73-33-7-6-16-20-14-23 0-2 2-2 8-1 17 2 42-7 54-19 13-15 19-40 14-62-2-10-10-22-19-27s-26-9-45-11l-14-3c0-1 29-9 103-28 73-18 99-28 108-43 5-8 12-15 14-15s2 2 3 3l1 14a109 109 0 0 0 74 102l20 10c26 21 48 30 91 38 31 6 46 10 66 20 24 11 44 28 58 51 16 25 31 64 35 88 1 12 1 41-1 50-1 4-1 4 1 4 7-1 20-39 22-63 1-20-6-73-7-75-4-11 5-5 14 9 9 13 14 25 19 44 4 15 5 54 6 54 3 1 19-30 21-52 3-31-4-42-20-73l-7-15c5-5 30 31 39 55 5 13 11 38 12 49 3 17 12 1 16-25 3-24-5-51-22-78l-10-19c0-3 2-2 10 6 26 27 54 75 60 106 5 22 4 64-2 79l-2 3-1-1-2-13c-2-20-11-46-15-46-5 0-6 7-5 24 1 20-2 40-11 71l-8 24-2 3c-2-1-2-10-1-27 1-26 0-40-3-44-1-2-2-2-4 1-3 4-4 5-6 23-3 31-13 63-23 79l-10 14-11 8 3-11 7-25c2-14 3-39 0-41-3-3-7 1-9 10a208 208 0 0 1-68 112 336 336 0 0 1-14 6l9-16c11-17 19-36 23-55 2-13 2-17 0-17-3 0-7 11-20 34-4 8-11 19-16 24-13 17-47 48-66 63a459 459 0 0 1-41 12c-4 0-6-1-2-4l6-6c13-11 31-36 37-53 3-10 6-28 4-31-1-4-5-3-6 2-3 8-14 28-20 38-11 16-33 37-51 49l-19 14a513 513 0 0 1-150-7v-53c0-10-3-10-9 0-5 9-9 25-9 37l-1 9-5-3 2 2-2-2c-2-4-5-12-6-19-4-17-1-46 6-63 3-7 3-10 2-11-5-5-23 22-28 43l-3 8c-3 0-4-12-4-25 1-16 5-30 13-44 9-17 7-19-11-9-12 7-22 11-23 9l5-8 12-18c4-8 12-13 24-16l22-5s52-18 100-32a305 305 0 0 1 154-4l4 1-11-8c-20-16-32-19-66-19-28 0-52 5-80 14s-109 30-141 36c-31 6-39 6-64 6Zm338 169h-1 1Zm-6 2h-1 1Zm342-231-8 33-1 7-2 7-2 8-2 6h-1v-2s-67 110-181 165c-41 20 80-7 165-115l-1 1-1 2v1l-1 2v1l-1 3h-1l-2 6-1 2v1l-1 1v1l-1 1v1l-1 2-2 2v3h-1v1l-1 1v1l-4 7-1 1-5 8-2 5a320 320 0 0 1-31 39l-6 6-4 5-5 5-4 4a27523 27523 0 0 1-19 18 557 557 0 0 1-130 90 587 587 0 0 0-34 17l-6 3-23 11-11 4-11 5a812 812 0 0 1-129 40l-5 1-13 4-13 4-13 3-22 7-9 2-8 3-25 10-5 2-3 2-7 3-17 10-7 4-12 8-6 4-11 8-7 6-7 6-10 10-5 4-3 3v1l-6 6-1 1-9 10v1-1l-2-10v-4l-1-7-1-5v-6l-1-5v-6l-1-4v-11l-1-5v-10l-1-5v-48l1-5v-13l1-4v-9l1-4v-8l1-5v-3l1-5v-3l1-5v-3l1-5 1-3 1-4v-3l1-5v-3l1-5 1-2 1-5v-2l2-5v-2l1-6 2-7 1-2 1-6 1-1 2-7v-2l2-5v-1c17 41 46 66 78 80 95 41 223-11 177-5-89 11-146-1-181-21-47-28-58-70-59-93v-1l2-4v-1l1-3 2-5h1l1-2v-1l3-6v-1l1-1 3-6 3-5 2-4 1-1v-1l2-2v-1l1-1v-1l1-1 1 6 2 6 2 6 1 1 2 3 1 2 4 7 2 4 3 3v1l3 3 3 4 4 4a80 80 0 0 0 11 9l4 3 4 2 5 4 4 1 10 5 5 2a452 452 0 0 0 33 9l9 1 9 1h3l6 1h9l3 1h74l2-1h8l5-1h7l3-1h4l3-1h4l3-1h5l2-1 7-1h1l6-1h2l4-1 3-1 4-1h3l3-1 3-1 4-1h2l4-1 3-1 4-1 2-1 6-1 2-1 3-1 3-1 3-1 3-1 3-1 3-1 3-1 2-1 3-1 3-1 3-1 2-1 4-1 3-2 3-1 3-1 3-1 2-1 3-1 2-2 3-1 2-1 2-1 3-1 2-1 2-1 3-2 2-1 4-2 2-1 3-1 2-1 2-2 2-1 3-1 2-1 2-1 2-2 2-1 2-1 2-1 2-1 3-2 1-1 3-2 2-1 2-1 2-1 2-1 1-2 2-1 2-1 2-1 1-1 2-1 2-1 2-2 1-1 3-2 1-1 2-1 1-1 2-1 2-1 1-1 2-1 1-1 1-1 2-1 1-1 2-1 1-1 2-2 5-4h1l5-4v-1l5-4 5-4v-1l5-4a153 153 0 0 0 6-6l4-4v-1l5-4v-1l5-5 5-5 4-5 1-1 4-5 4-5 1-1 4-5v-1l4-5a128 128 0 0 0 5-6l3-5 1-1 4-5 4-5v-1l3-5h1l3-5 1-1 3-4 1-1 3-5v-1l3-4 1-1 2-4 1-1 3-4v-1l3-4v-1l3-4 1-1 2-3 6-10v-1l2-2v-1c6 4 12 5 19 6l1 2Zm4-18h-1v3l-1-3c-4 0-8-1-11-3a32 32 0 0 1-16-18l-1-1a1010 1010 0 0 0 0-3l-1-2v-7l1-3v-3l1-3h1l1-3 1-2v-1l2-1v-1l2-2h1l1-2h1l1-1 1-1 2-1h1a31 31 0 1 1 14 59v-1Zm132 27c-15 4-28 6-40 6-40 0-61-19-61-19l1-7c10-9 17-21 17-36 13 0 21-9 28-20l10 3c15 6 30 9 44 9 38 0 69-18 69-18s-1 64-68 82Z"/>
  </g>
  <defs>
    <clipPath id="a">
      <path fill="#fff" d="M0 0h1017v1017H0z"/>
    </clipPath>
  </defs>
</svg>
